<svg width="270" height="270" viewBox="0 0 270 270" fill="none" xmlns="http://www.w3.org/2000/svg">
<g clip-path="url(#clip0_101_163)">
<path d="M135 270C209.558 270 270 209.558 270 135C270 60.4416 209.558 0 135 0C60.4416 0 0 60.4416 0 135C0 209.558 60.4416 270 135 270Z" fill="#2BFF99"/>
<path d="M183.993 195.989C179.66 200.323 173.67 203.004 167.055 203C163.126 203 159.422 202.055 156.149 200.378C151.671 198.084 148.01 194.423 145.715 189.945C144.047 186.672 143.102 182.973 143.102 179.048V178.422C143.157 176.166 143.527 173.987 144.166 171.935C144.166 171.927 144.17 171.918 144.166 171.914C145.315 168.19 145.932 164.231 145.937 160.128C145.937 154.892 144.928 149.89 143.097 145.302C141.067 140.202 138.015 135.622 134.201 131.804C130.386 127.986 125.802 124.934 120.702 122.908C116.113 121.078 111.111 120.073 105.875 120.069C101.772 120.069 97.8127 120.69 94.088 121.84C94.088 121.84 94.0752 121.84 94.0667 121.84C92.0149 122.478 89.8396 122.848 87.5792 122.904H86.9534C83.0329 122.904 79.3294 121.963 76.0558 120.29C71.5776 117.996 67.9167 114.335 65.6222 109.857C63.945 106.584 63 102.885 63 98.9519C63 92.3371 65.6776 86.3481 70.0111 82.0149C74.3446 77.6817 80.3383 75 86.9534 75H190.149C190.617 75 191 75.3831 191 75.8513V179.04C191 185.654 188.322 191.643 183.985 195.981L183.993 195.989Z" fill="#000004"/>
<path d="M106.914 183.184C120.168 183.184 130.914 172.439 130.914 159.184C130.914 145.929 120.168 135.184 106.914 135.184C93.6587 135.184 82.9136 145.929 82.9136 159.184C82.9136 172.439 93.6587 183.184 106.914 183.184Z" fill="#000004"/>
</g>
<defs>
<clipPath id="clip0_101_163">
<rect width="270" height="270" fill="white"/>
</clipPath>
</defs>
</svg>
