<svg width="170" height="41" viewBox="0 0 170 41" fill="none" xmlns="http://www.w3.org/2000/svg">
<path alt='logo' d="M26.6175 34.8035C25.6641 35.7569 24.3464 36.347 22.891 36.346C22.0266 36.346 21.2118 36.1381 20.4915 35.7691C19.5063 35.2642 18.7008 34.4588 18.1961 33.4736C17.829 32.7534 17.621 31.9396 17.621 31.0761V30.9384C17.6333 30.442 17.7147 29.9625 17.8552 29.5111C17.8552 29.5092 17.8561 29.5074 17.8552 29.5064C18.1081 28.6869 18.2438 27.8159 18.2448 26.9132C18.2448 25.7612 18.0228 24.6607 17.6201 23.6512C17.1734 22.5292 16.5019 21.5214 15.6627 20.6814C14.8236 19.8413 13.815 19.1698 12.6929 18.724C11.6833 18.3213 10.5829 18.1003 9.43098 18.0993C8.52816 18.0993 7.65718 18.2361 6.8377 18.489H6.83302C6.38161 18.6295 5.90303 18.7109 5.40572 18.7231H5.26805C4.4055 18.7231 3.5907 18.5161 2.8705 18.148C1.88526 17.6432 1.07983 16.8378 0.575037 15.8525C0.207912 15.1352 0 14.3204 0 13.455C0 11.9996 0.589085 10.6819 1.54249 9.72852C2.49589 8.77512 3.81454 8.18604 5.26899 8.18604H27.9727C28.0757 8.18604 28.16 8.27032 28.16 8.37334V31.077C28.16 32.5324 27.5709 33.8501 26.6165 34.8044L26.6175 34.8035Z" fill="#2BFF99"/>
<path d="M9.61833 31.904C12.5118 31.904 14.8574 29.5585 14.8574 26.665C14.8574 23.7715 12.5118 21.4259 9.61833 21.4259C6.7249 21.4259 4.37926 23.7716 4.37926 26.665C4.37926 29.5583 6.72487 31.904 9.61833 31.904Z" fill="#2BFF99"/>
<g clip-path="url(#clip0_745_4890)">
<path d="M64.4287 20.4602C64.4287 15.899 61.0403 12.4673 56.5226 12.4673C51.9614 12.4673 48.573 15.899 48.573 20.4602C48.573 25.0213 51.9614 28.4532 56.5226 28.4532C61.0403 28.4532 64.4287 25.0214 64.4287 20.4602ZM44.7503 20.4602C44.7503 13.8573 49.4853 8.86169 55.8276 8.86169C59.52 8.86169 62.5607 10.5993 64.4287 13.3795L65.0836 9.38302H68.1645V31.5374H65.0836L64.4287 27.5409C62.5607 30.321 59.52 32.0587 55.8276 32.0587C49.4853 32.0587 44.7503 27.063 44.7503 20.4602Z" fill="#21282e"/>
<path d="M92.6125 20.4602C92.6125 15.899 89.2243 12.4673 84.663 12.4673C80.1452 12.4673 76.757 15.899 76.757 20.4602C76.757 25.0214 80.1452 28.4532 84.663 28.4532C89.2243 28.4532 92.6125 25.0215 92.6125 20.4602ZM73.0212 0.26062H76.757V13.3795C78.6249 10.5993 81.6657 8.86172 85.3581 8.86172C91.7003 8.86172 96.4787 13.8573 96.4787 20.4602C96.4787 27.0631 91.7003 32.0587 85.3581 32.0587C81.6657 32.0587 78.6249 30.3211 76.757 27.5409L76.1021 31.5375H73.0212V0.26062Z" fill="#21282e"/>
<path d="M103.807 0.26062H100.071V31.5375H103.807V0.26062Z" fill="#21282e"/>
<path d="M130.14 25.6115C128.239 29.4928 124.124 32.0587 119.193 32.0587C112.373 32.0587 107.29 27.063 107.29 20.4602C107.29 13.8573 112.373 8.86169 119.063 8.86169C125.796 8.86169 130.835 13.8573 130.835 20.4602C130.835 20.9815 130.791 21.5462 130.748 22.0241H111.287C111.938 25.9336 115.066 28.6269 119.236 28.6269C122.222 28.6269 124.841 27.2429 126.149 25.1447L130.14 25.6115ZM111.33 18.6792H126.882C126.23 14.9867 123.103 12.2934 119.063 12.2934C115.11 12.2934 112.069 14.8999 111.33 18.6792Z" fill="#21282e"/>
<path d="M135.544 12.7714H131.504V9.38303H135.544V6.86348C135.544 2.51944 138.193 0 142.928 0H145.578V3.43174H143.276C140.8 3.43174 139.279 4.90874 139.279 7.29794V9.38303H145.231V12.7714H139.279V31.5375H135.544V12.7714Z" fill="#21282e"/>
<path d="M156.273 31.4506L146.629 9.38306H150.886L158.358 27.0631L165.83 9.38306H170L156.664 39.7911H152.624L156.273 31.4506Z" fill="#21282e"/>
</g>
<defs>
<clipPath id="clip0_745_4890">
<rect width="125.25" height="39.7911" fill="#21282e" transform="translate(44.7503)"/>
</clipPath>
</defs>
</svg>
